<svg xmlns="http://www.w3.org/2000/svg" xmlns:xlink="http://www.w3.org/1999/xlink" viewBox="0 0 73 73"><defs><style>.cls-1{fill:url(#linear-gradient);}.cls-2{opacity:0.15;}.cls-3{fill:#fff;}</style><linearGradient id="linear-gradient" x1="66.83" y1="0.36" x2="6.4" y2="72.37" gradientUnits="userSpaceOnUse"><stop offset="0" stop-color="#feac5e"/><stop offset="1" stop-color="#fc4b05"/></linearGradient></defs><title>box-2</title><g id="Layer_2" data-name="Layer 2"><g id="Layer_1-2" data-name="Layer 1"><rect class="cls-1" width="73" height="73" rx="6"/><g class="cls-2"><path class="cls-3" d="M1,2.77A5.86,5.86,0,0,0,0,6V9.74A17,17,0,0,1,12,26,17,17,0,0,1,0,42.26v7.19A24,24,0,0,0,19,26,24,24,0,0,0,1,2.77Z"/></g><g class="cls-2"><path class="cls-3" d="M73,13.15,36.18,24.62,51.25,73H67a6,6,0,0,0,5.74-4.25l-12.2,3.8-13.09-42,25.55-8Z"/></g></g></g></svg>