<svg xmlns="http://www.w3.org/2000/svg" xmlns:xlink="http://www.w3.org/1999/xlink" viewBox="0 0 73 73"><defs><style>.cls-1{fill:url(#linear-gradient);}.cls-2{opacity:0.15;}.cls-3{fill:#fff;}</style><linearGradient id="linear-gradient" x1="66.83" y1="0.36" x2="6.4" y2="72.37" gradientUnits="userSpaceOnUse"><stop offset="0" stop-color="#f405fc"/><stop offset="1" stop-color="#a35efe"/></linearGradient></defs><title>box-3</title><g id="Layer_2" data-name="Layer 2"><g id="Layer_1-2" data-name="Layer 1"><rect class="cls-1" width="73" height="73" rx="6"/><g class="cls-2"><path class="cls-3" d="M65.39,0H55.5a22.75,22.75,0,0,1,.66,5.5,23.66,23.66,0,0,1-47.32,0A22.75,22.75,0,0,1,9.5,0H6A6,6,0,0,0,0,6v6.93A33.34,33.34,0,0,0,65.84,5.5,34.4,34.4,0,0,0,65.39,0Z"/></g><g class="cls-2"><path class="cls-3" d="M37.67,45.67V73H45.6V53.6H73V45.67Z"/></g></g></g></svg>