<svg xmlns="http://www.w3.org/2000/svg" xmlns:xlink="http://www.w3.org/1999/xlink" viewBox="0 0 73 73"><defs><style>.cls-1{fill:url(#linear-gradient);}.cls-2{opacity:0.15;}.cls-3{fill:#fff;}</style><linearGradient id="linear-gradient" x1="66.83" y1="0.36" x2="6.4" y2="72.37" gradientUnits="userSpaceOnUse"><stop offset="0" stop-color="#05baee"/><stop offset="1" stop-color="#6734ff"/></linearGradient></defs><title>box-1</title><g id="Layer_2" data-name="Layer 2"><g id="Layer_1-2" data-name="Layer 1"><rect class="cls-1" width="73" height="73" rx="6"/><g class="cls-2"><path class="cls-3" d="M8,33a30.63,30.63,0,0,0-8,1v9.47A21.73,21.73,0,0,1,8,42,22,22,0,0,1,30,64a21.85,21.85,0,0,1-1.93,9h9.59A30.77,30.77,0,0,0,39,64,31,31,0,0,0,8,33Z"/></g><g class="cls-2"><path class="cls-3" d="M46,23V0H37V32H73V23Z"/></g></g></g></svg>